<?xml version="1.0" encoding="UTF-8" standalone="no"?><!DOCTYPE svg PUBLIC "-//W3C//DTD SVG 1.1//EN" "http://www.w3.org/Graphics/SVG/1.1/DTD/svg11.dtd"><svg width="100%" height="100%" viewBox="0 0 674 574" version="1.1" xmlns="http://www.w3.org/2000/svg" xmlns:xlink="http://www.w3.org/1999/xlink" xml:space="preserve" xmlns:serif="http://www.serif.com/" style="fill-rule:evenodd;clip-rule:evenodd;stroke-linejoin:round;stroke-miterlimit:2;"><g id="Background"><path d="M569.321,257.898c0.306,5.367 7.782,60.785 -58.74,75.914c-55.021,12.513 -131.566,-22.482 -227.231,-37.221c-10.028,-1.545 -0.572,-9.731 -56.67,-113.462c-25.095,-46.404 -29.931,-57.895 -50.504,-50.835c-8.292,2.845 -24.255,17.609 -11.195,38.517c15.068,24.124 29.312,39.674 69.323,117.246c0.345,0.668 4.39,8.511 -0.553,9.382c-39.285,6.927 -39.538,8.432 -42.529,6.723c-9.278,-5.301 0.81,-13.992 -81.577,-105.773c-79.085,-88.103 162.554,-173.58 228.382,-179.887c1.884,-0.18 82.621,-11.762 97.647,30.881c7.059,20.033 -16.678,93.903 11.493,214.465c0.908,3.885 1.269,6.474 5.397,3.501c10.444,-7.522 71.849,-55.056 104.979,-31.563c9.211,6.532 11.452,20.134 11.778,22.111Z" style="fill:#fefcf7;"/><path d="M131.534,409.433c0.145,-6.1 1.054,-44.283 38.667,-65.75c62.772,-35.826 212.309,8.758 213.525,10.301c4.292,5.444 -13.981,7.784 -14.972,8.007c-71.143,16.049 -68.412,26.481 -108.934,62.928c-55.515,49.933 -123.016,37.324 -128.286,-15.486Z" style="fill:#fefcf7;"/><path d="M445.061,488.022c0.966,-1.051 2.108,-1.93 3.074,-2.981c8.773,-9.549 -28.573,-12.645 -76.387,-0.795c-32.283,8.001 -89.038,31.548 -66.514,39.602c-6.166,9.39 -32.146,-6.002 -14.174,-35.501c23.714,-38.923 9.148,-76.309 23.109,-90.804c6.179,-6.415 36.216,-15.509 36.687,-15.623c27.434,-6.659 45.675,46.309 82.609,63.89c46.682,22.221 17.324,49.241 11.597,42.212Z" style="fill:#fefbf7;"/><path d="M445.061,488.022c-34.835,22.62 -41.504,15.133 -41.464,21.143c0.021,3.161 0.188,28.223 -27.298,28.568c-20.831,0.261 -25.305,-16.572 -27.696,-16.203c-6.644,1.025 -26.395,5.289 -43.369,2.319c-22.524,-8.054 34.23,-31.601 66.514,-39.602c47.814,-11.85 85.16,-8.754 76.387,0.795c-0.966,1.051 -2.108,1.93 -3.074,2.981Z" style="fill:#080804;"/><path d="M623.499,242.189c0.296,41.579 -3.65,65.633 -24.695,99.546c-6.796,10.951 -12.204,1.975 -9.94,-1.902c2.09,-3.579 25.668,-31.595 25.194,-90.905c-0.693,-86.667 -51.957,-133.109 -61.089,-141.381c-0.468,-0.424 -14.403,-10.464 -10.229,-14.675c4.941,-4.985 39.284,24.366 56.962,60.099c19.917,40.259 21.642,65.42 23.796,89.219Z" style="fill:#fefaf7;"/><path d="M673.025,251.187c0.095,10.769 7.261,95.328 -60.48,164.236c-7.703,7.836 -10.923,1.854 -8.796,-2.164c0.748,-1.414 42.807,-43.278 54.037,-95.277c16.141,-74.735 -1.452,-92.691 9.511,-93.974c5.467,-0.64 5.335,19.072 5.727,27.179Z" style="fill:#fef9f6;"/><path d="M2.116,148.435c8.154,-27.02 7.607,-28.164 21.026,-55.468c29.457,-59.938 71.858,-92.829 72.684,-92.903c15.272,-1.372 -10.257,19.865 -26.673,39.902c-59.104,72.139 -55.452,118.127 -61.851,124.214c-0.392,0.373 -10.542,4.299 -5.185,-15.745Z" style="fill:#fefaf7;"/><path d="M659.536,166.453c3.91,16.872 -2.51,15.734 -3.519,15.023c-7.354,-5.178 -10.642,-67.932 -75.232,-115.959c-6.169,-4.587 -34.163,-21.296 -23.017,-23.725c2.423,-0.528 49.941,21.184 80.747,74.542c15.122,26.192 20.748,49.215 21.021,50.119Z" style="fill:#fefaf7;"/><path d="M53.731,193.427c-0.019,14.374 1.68,14.207 1.484,28.495c-0.06,4.339 -6.432,4.585 -7.665,0.101c-13.721,-49.889 13.176,-123.623 49.174,-156.665c5.902,-5.418 10.699,0.108 6.388,5.684c-14.019,18.132 -49.135,53.051 -49.381,122.384Z" style="fill:#fefaf7;"/><path d="M527.54,479.173c-0.799,5.291 -0.736,8.139 -5.568,5.703c-4.101,-2.066 -20.432,-79.099 -84.733,-113.266c-6.252,-3.322 -3.502,-12.228 6.374,-6.826c51.405,28.115 80.469,91.77 83.928,114.389Z" style="fill:#fefaf7;"/><path d="M354.956,507.677c2.516,-15.523 7.711,-12.016 22.896,-15.545c10.901,-2.533 13.519,-3.679 17.599,6.677c12.552,31.857 -39.352,44.617 -40.495,8.868Z" style="fill:#fefbf8;"/><path d="M17.725,259.434c20.19,83.271 82.153,90.325 65.31,98.215c-10.096,4.729 -50.676,-36.72 -59.49,-56.854c-21.585,-49.306 -15.333,-53.114 -11.002,-53.026c3.831,0.078 4.752,9.835 5.182,11.665Z" style="fill:#fefaf7;"/><path d="M490.248,473.926c-4.142,16.102 -13.828,-10.633 -18.939,-19.366c-31.795,-54.329 -70.972,-60.667 -55.885,-68.125c6.292,-3.111 64.03,46.486 74.824,87.492Z" style="fill:#fefaf7;"/><path d="M239.557,495.665c-3.711,47.901 19.274,57.799 9.201,63.671c-6.873,4.006 -23.073,-33.719 -17.761,-66.626c1.82,-11.275 6.468,-36.637 13.918,-31.384c3.989,2.812 -5.023,20.811 -5.358,34.339Z" style="fill:#fefaf7;"/><path d="M268.205,486.674c-5.408,40.134 11.442,53.616 0.843,53.958c-8.673,0.28 -13.85,-33.68 -9.592,-56.924c7.649,-41.759 12.42,-45.06 17.063,-40.507c2.528,2.479 -1.882,2.819 -8.314,43.473Z" style="fill:#fef9f6;"/><path d="M541.273,148.451c3.71,4.278 29.659,34.206 32.321,62.972c0.788,8.518 -6.609,9.808 -8.83,1.448c-16.318,-61.427 -40.717,-59.194 -38.31,-70.406c1.725,-8.033 13.946,5.052 14.818,5.986Z" style="fill:#fefaf7;"/><path d="M13.268,355.463c47.486,40 64.997,30.012 60.538,39.623c-6.67,14.377 -95.629,-47.893 -68.766,-45.561c2.535,0.22 7.408,5.236 8.228,5.938Z" style="fill:#fefaf7;"/><path d="M89.025,307.451c14.818,13.191 14.511,14.008 13.924,15.573c-6.507,17.328 -63.101,-58.918 -46.186,-62.386c2.519,-0.516 3.07,1.261 8.683,13.19c9.434,20.05 18.882,28.394 23.579,33.623Z" style="fill:#fefaf7;"/><path d="M42.551,421.631c22.338,0.027 33.562,-0.946 34.538,2.784c0.435,1.663 -1.583,5.041 -5.293,5.055c-43.578,0.153 -50.008,1.326 -51.481,-2.884c-2.184,-6.243 19.095,-4.934 22.236,-4.955Z" style="fill:#fefaf7;"/><path d="M455.79,531.127c1.377,0.278 18.909,1.882 16.204,7.94c-2.479,5.552 -57.953,-5.519 -44.748,-14.221c0.829,-0.546 1.084,-1.613 10.437,1.932c9.696,3.675 17.01,4.169 18.107,4.348Z" style="fill:#fef9f6;"/><path d="M91.187,455.187c-0.802,6.899 -41.101,32.387 -38.947,20.984c0.736,-3.898 2.02,-2.965 30.872,-22.4c5.806,-3.911 7.818,0.813 8.075,1.417Z" style="fill:#fefaf7;"/><path d="M422.075,565.392c-1.913,-1.472 -13.957,-9.938 -14.238,-12.719c-1.212,-11.986 30.449,12.246 30.283,17.268c-0.288,8.737 -15.136,-3.908 -16.045,-4.549Z" style="fill:#fefaf7;"/></g></svg>