<?xml version="1.0" encoding="UTF-8" standalone="no"?>
<!DOCTYPE svg PUBLIC "-//W3C//DTD SVG 1.1//EN" "http://www.w3.org/Graphics/SVG/1.1/DTD/svg11.dtd">
<svg width="100%" height="100%" viewBox="0 0 583 583" version="1.1" xmlns="http://www.w3.org/2000/svg" xmlns:xlink="http://www.w3.org/1999/xlink" xml:space="preserve" xmlns:serif="http://www.serif.com/" style="fill-rule:evenodd;clip-rule:evenodd;stroke-linejoin:round;stroke-miterlimit:2;">
    <g id="Background" transform="matrix(1,0,0,1,-11.575946,5.322261)">
        <g transform="matrix(1.018498,0,0,1.018498,11.575946,-5.322261)">
            <rect x="0" y="0" width="572.376" height="572.376" style="fill:white;"/>
        </g>
        <g transform="matrix(1.253445,0,0,1.253445,-4.282984,-24.516045)">
            <path d="M16.899,19.56L16.899,116.423L113.763,116.423L113.763,19.56L16.899,19.56ZM169.113,19.56L169.113,33.397L210.626,33.397L210.626,47.235L224.464,47.235L224.464,61.073L252.139,61.073L252.139,47.235L265.977,47.235L265.977,61.073L279.814,61.073L279.814,88.748L321.327,88.748L321.327,130.261L335.165,130.261L335.165,144.098L307.49,144.098L307.49,102.585L293.652,102.585L293.652,144.098L307.49,144.098L307.49,157.936L321.327,157.936L321.327,199.449L293.652,199.449L293.652,185.611L279.814,185.611L279.814,199.449L265.977,199.449L265.977,213.287L293.652,213.287L293.652,227.124L307.49,227.124L307.49,213.287L321.327,213.287L321.327,227.124L335.165,227.124L335.165,213.287L349.003,213.287L349.003,227.124L362.84,227.124L362.84,240.962L349.003,240.962L349.003,254.8L376.678,254.8L376.678,268.637L390.515,268.637L390.515,282.475L418.191,282.475L418.191,268.637L404.353,268.637L404.353,254.8L418.191,254.8L418.191,268.637L432.028,268.637L432.028,254.8L418.191,254.8L418.191,227.124L404.353,227.124L404.353,240.962L390.515,240.962L390.515,227.124L362.84,227.124L362.84,213.287L349.003,213.287L349.003,199.449L335.165,199.449L335.165,185.611L349.003,185.611L349.003,199.449L362.84,199.449L362.84,185.611L349.003,185.611L349.003,171.774L335.165,171.774L335.165,157.936L349.003,157.936L349.003,144.098L362.84,144.098L362.84,157.936L376.678,157.936L376.678,144.098L362.84,144.098L362.84,130.261L349.003,130.261L349.003,116.423L335.165,116.423L335.165,88.748L321.327,88.748L321.327,47.235L307.49,47.235L307.49,33.397L293.652,33.397L293.652,47.235L265.977,47.235L265.977,33.397L252.139,33.397L252.139,19.56L238.301,19.56L238.301,47.235L224.464,47.235L224.464,33.397L210.626,33.397L210.626,19.56L169.113,19.56ZM265.977,19.56L265.977,33.397L279.814,33.397L279.814,19.56L265.977,19.56ZM307.49,19.56L307.49,33.397L321.327,33.397L321.327,47.235L335.165,47.235L335.165,33.397L321.327,33.397L321.327,19.56L307.49,19.56ZM376.678,19.56L376.678,116.423L473.541,116.423L473.541,19.56L376.678,19.56ZM99.925,33.397L99.925,102.585L30.737,102.585L30.737,33.397L99.925,33.397ZM141.438,33.397L141.438,47.235L169.113,47.235L169.113,33.397L141.438,33.397ZM459.704,33.397L459.704,102.585L390.515,102.585L390.515,33.397L459.704,33.397ZM44.574,47.235L44.574,88.748L86.087,88.748L86.087,47.235L44.574,47.235ZM182.951,47.235L182.951,74.91L210.626,74.91L210.626,116.423L224.464,116.423L224.464,144.098L252.139,144.098L252.139,157.936L265.977,157.936L265.977,171.774L279.814,171.774L279.814,157.936L293.652,157.936L293.652,144.098L265.977,144.098L265.977,130.261L238.301,130.261L238.301,116.423L224.464,116.423L224.464,61.073L196.788,61.073L196.788,47.235L182.951,47.235ZM349.003,47.235L349.003,74.91L362.84,74.91L362.84,47.235L349.003,47.235ZM404.353,47.235L404.353,88.748L445.866,88.748L445.866,47.235L404.353,47.235ZM127.6,61.073L127.6,88.748L155.276,88.748L155.276,74.91L141.438,74.91L141.438,61.073L127.6,61.073ZM252.139,74.91L252.139,102.585L265.977,102.585L265.977,116.423L279.814,116.423L279.814,102.585L265.977,102.585L265.977,74.91L252.139,74.91ZM335.165,74.91L335.165,88.748L349.003,88.748L349.003,116.423L362.84,116.423L362.84,88.748L349.003,88.748L349.003,74.91L335.165,74.91ZM169.113,88.748L169.113,102.585L182.951,102.585L182.951,116.423L196.788,116.423L196.788,88.748L169.113,88.748ZM127.6,102.585L127.6,116.423L141.438,116.423L141.438,102.585L127.6,102.585ZM155.276,102.585L155.276,130.261L169.113,130.261L169.113,144.098L182.951,144.098L182.951,157.936L196.788,157.936L196.788,171.774L224.464,171.774L224.464,199.449L210.626,199.449L210.626,213.287L224.464,213.287L224.464,227.124L238.301,227.124L238.301,240.962L252.139,240.962L252.139,254.8L238.301,254.8L238.301,240.962L182.951,240.962L182.951,227.124L210.626,227.124L210.626,213.287L169.113,213.287L169.113,254.8L182.951,254.8L182.951,268.637L169.113,268.637L169.113,282.475L155.276,282.475L155.276,254.8L141.438,254.8L141.438,240.962L99.925,240.962L99.925,227.124L113.763,227.124L113.763,213.287L86.087,213.287L86.087,199.449L72.25,199.449L72.25,185.611L86.087,185.611L86.087,171.774L72.25,171.774L72.25,157.936L58.412,157.936L58.412,171.774L44.574,171.774L44.574,130.261L16.899,130.261L16.899,144.098L30.737,144.098L30.737,185.611L44.574,185.611L44.574,199.449L72.25,199.449L72.25,213.287L58.412,213.287L58.412,227.124L86.087,227.124L86.087,240.962L99.925,240.962L99.925,254.8L113.763,254.8L113.763,268.637L127.6,268.637L127.6,254.8L141.438,254.8L141.438,296.312L155.276,296.312L155.276,310.15L169.113,310.15L169.113,323.988L182.951,323.988L182.951,310.15L169.113,310.15L169.113,296.312L196.788,296.312L196.788,310.15L238.301,310.15L238.301,296.312L252.139,296.312L252.139,282.475L238.301,282.475L238.301,268.637L224.464,268.637L224.464,282.475L210.626,282.475L210.626,296.312L196.788,296.312L196.788,268.637L210.626,268.637L210.626,254.8L238.301,254.8L238.301,268.637L252.139,268.637L252.139,282.475L265.977,282.475L265.977,254.8L279.814,254.8L279.814,296.312L293.652,296.312L293.652,282.475L335.165,282.475L335.165,296.312L321.327,296.312L321.327,310.15L307.49,310.15L307.49,323.988L321.327,323.988L321.327,351.663L335.165,351.663L335.165,323.988L362.84,323.988L362.84,337.825L376.678,337.825L376.678,351.663L349.003,351.663L349.003,379.338L335.165,379.338L335.165,365.501L321.327,365.501L321.327,379.338L335.165,379.338L335.165,407.014L349.003,407.014L349.003,420.851L362.84,420.851L362.84,448.527L376.678,448.527L376.678,420.851L404.353,420.851L404.353,434.689L390.515,434.689L390.515,462.364L418.191,462.364L418.191,476.202L432.028,476.202L432.028,462.364L445.866,462.364L445.866,476.202L459.704,476.202L459.704,462.364L445.866,462.364L445.866,448.527L418.191,448.527L418.191,434.689L445.866,434.689L445.866,420.851L432.028,420.851L432.028,407.014L445.866,407.014L445.866,420.851L459.704,420.851L459.704,379.338L445.866,379.338L445.866,365.501L418.191,365.501L418.191,351.663L445.866,351.663L445.866,365.501L459.704,365.501L459.704,379.338L473.541,379.338L473.541,365.501L459.704,365.501L459.704,351.663L445.866,351.663L445.866,337.825L432.028,337.825L432.028,310.15L418.191,310.15L418.191,296.312L404.353,296.312L404.353,310.15L390.515,310.15L390.515,323.988L362.84,323.988L362.84,296.312L349.003,296.312L349.003,254.8L335.165,254.8L335.165,240.962L321.327,240.962L321.327,254.8L335.165,254.8L335.165,268.637L321.327,268.637L321.327,254.8L307.49,254.8L307.49,240.962L293.652,240.962L293.652,254.8L279.814,254.8L279.814,227.124L265.977,227.124L265.977,240.962L252.139,240.962L252.139,213.287L238.301,213.287L238.301,157.936L224.464,157.936L224.464,144.098L210.626,144.098L210.626,130.261L196.788,130.261L196.788,144.098L210.626,144.098L210.626,157.936L196.788,157.936L196.788,144.098L182.951,144.098L182.951,116.423L169.113,116.423L169.113,102.585L155.276,102.585ZM238.301,102.585L238.301,116.423L252.139,116.423L252.139,102.585L238.301,102.585ZM86.087,130.261L86.087,144.098L127.6,144.098L127.6,157.936L155.276,157.936L155.276,171.774L169.113,171.774L169.113,157.936L155.276,157.936L155.276,130.261L141.438,130.261L141.438,144.098L127.6,144.098L127.6,130.261L86.087,130.261ZM404.353,130.261L404.353,144.098L390.515,144.098L390.515,157.936L418.191,157.936L418.191,171.774L432.028,171.774L432.028,185.611L445.866,185.611L445.866,227.124L459.704,227.124L459.704,240.962L473.541,240.962L473.541,227.124L459.704,227.124L459.704,213.287L473.541,213.287L473.541,185.611L445.866,185.611L445.866,171.774L432.028,171.774L432.028,157.936L418.191,157.936L418.191,144.098L432.028,144.098L432.028,157.936L445.866,157.936L445.866,171.774L459.704,171.774L459.704,144.098L432.028,144.098L432.028,130.261L404.353,130.261ZM72.25,144.098L72.25,157.936L86.087,157.936L86.087,171.774L113.763,171.774L113.763,185.611L127.6,185.611L127.6,227.124L141.438,227.124L141.438,199.449L155.276,199.449L155.276,171.774L127.6,171.774L127.6,157.936L86.087,157.936L86.087,144.098L72.25,144.098ZM182.951,171.774L182.951,185.611L169.113,185.611L169.113,199.449L196.788,199.449L196.788,171.774L182.951,171.774ZM293.652,171.774L293.652,185.611L307.49,185.611L307.49,171.774L293.652,171.774ZM404.353,171.774L404.353,185.611L418.191,185.611L418.191,171.774L404.353,171.774ZM99.925,185.611L99.925,199.449L113.763,199.449L113.763,185.611L99.925,185.611ZM376.678,185.611L376.678,213.287L404.353,213.287L404.353,199.449L390.515,199.449L390.515,185.611L376.678,185.611ZM44.574,227.124L44.574,240.962L58.412,240.962L58.412,254.8L72.25,254.8L72.25,268.637L58.412,268.637L58.412,282.475L72.25,282.475L72.25,296.312L86.087,296.312L86.087,310.15L113.763,310.15L113.763,323.988L99.925,323.988L99.925,337.825L113.763,337.825L113.763,351.663L99.925,351.663L99.925,365.501L127.6,365.501L127.6,407.014L141.438,407.014L141.438,448.527L155.276,448.527L155.276,407.014L141.438,407.014L141.438,393.176L169.113,393.176L169.113,379.338L182.951,379.338L182.951,351.663L169.113,351.663L169.113,365.501L155.276,365.501L155.276,337.825L127.6,337.825L127.6,296.312L99.925,296.312L99.925,282.475L113.763,282.475L113.763,268.637L86.087,268.637L86.087,240.962L58.412,240.962L58.412,227.124L44.574,227.124ZM432.028,227.124L432.028,240.962L445.866,240.962L445.866,268.637L459.704,268.637L459.704,282.475L473.541,282.475L473.541,254.8L459.704,254.8L459.704,240.962L445.866,240.962L445.866,227.124L432.028,227.124ZM30.737,240.962L30.737,282.475L44.574,282.475L44.574,296.312L58.412,296.312L58.412,282.475L44.574,282.475L44.574,240.962L30.737,240.962ZM390.515,254.8L376.678,254.8L376.678,240.962L390.515,240.962L390.515,254.8ZM16.899,282.475L16.899,296.312L30.737,296.312L30.737,310.15L44.574,310.15L44.574,323.988L58.412,323.988L58.412,337.825L72.25,337.825L72.25,365.501L86.087,365.501L86.087,337.825L72.25,337.825L72.25,323.988L58.412,323.988L58.412,310.15L44.574,310.15L44.574,296.312L30.737,296.312L30.737,282.475L16.899,282.475ZM432.028,282.475L432.028,296.312L445.866,296.312L445.866,337.825L459.704,337.825L459.704,296.312L445.866,296.312L445.866,282.475L432.028,282.475ZM16.899,310.15L16.899,365.501L58.412,365.501L58.412,351.663L30.737,351.663L30.737,310.15L16.899,310.15ZM72.25,310.15L72.25,323.988L86.087,323.988L86.087,310.15L72.25,310.15ZM141.438,310.15L141.438,323.988L155.276,323.988L155.276,337.825L169.113,337.825L169.113,323.988L155.276,323.988L155.276,310.15L141.438,310.15ZM265.977,310.15L265.977,323.988L293.652,323.988L293.652,337.825L279.814,337.825L279.814,351.663L307.49,351.663L307.49,323.988L293.652,323.988L293.652,310.15L265.977,310.15ZM210.626,323.988L210.626,351.663L224.464,351.663L224.464,337.825L238.301,337.825L238.301,379.338L252.139,379.338L252.139,365.501L265.977,365.501L265.977,351.663L252.139,351.663L252.139,323.988L210.626,323.988ZM182.951,337.825L182.951,351.663L196.788,351.663L196.788,337.825L182.951,337.825ZM141.438,351.663L141.438,365.501L155.276,365.501L155.276,379.338L141.438,379.338L141.438,365.501L127.6,365.501L127.6,351.663L141.438,351.663ZM210.626,365.501L210.626,379.338L224.464,379.338L224.464,393.176L238.301,393.176L238.301,434.689L210.626,434.689L210.626,462.364L182.951,462.364L182.951,476.202L238.301,476.202L238.301,448.527L265.977,448.527L265.977,462.364L279.814,462.364L279.814,448.527L265.977,448.527L265.977,434.689L252.139,434.689L252.139,420.851L279.814,420.851L279.814,448.527L293.652,448.527L293.652,462.364L307.49,462.364L307.49,448.527L293.652,448.527L293.652,434.689L307.49,434.689L307.49,448.527L321.327,448.527L321.327,434.689L307.49,434.689L307.49,420.851L279.814,420.851L279.814,407.014L252.139,407.014L252.139,393.176L238.301,393.176L238.301,379.338L224.464,379.338L224.464,365.501L210.626,365.501ZM293.652,365.501L293.652,379.338L307.49,379.338L307.49,365.501L293.652,365.501ZM404.353,365.501L404.353,407.014L362.84,407.014L362.84,365.501L404.353,365.501ZM16.899,379.338L16.899,476.202L113.763,476.202L113.763,379.338L16.899,379.338ZM196.788,379.338L196.788,393.176L210.626,393.176L210.626,407.014L196.788,407.014L196.788,420.851L224.464,420.851L224.464,393.176L210.626,393.176L210.626,379.338L196.788,379.338ZM265.977,379.338L265.977,393.176L279.814,393.176L279.814,379.338L265.977,379.338ZM376.678,379.338L376.678,393.176L390.515,393.176L390.515,379.338L376.678,379.338ZM99.925,393.176L99.925,462.364L30.737,462.364L30.737,393.176L99.925,393.176ZM432.028,393.176L432.028,379.338L445.866,379.338L445.866,393.176L432.028,393.176ZM44.574,407.014L44.574,448.527L86.087,448.527L86.087,407.014L44.574,407.014ZM169.113,407.014L169.113,448.527L182.951,448.527L182.951,434.689L196.788,434.689L196.788,420.851L182.951,420.851L182.951,407.014L169.113,407.014ZM321.327,407.014L321.327,434.689L349.003,434.689L349.003,420.851L335.165,420.851L335.165,407.014L321.327,407.014ZM459.704,434.689L459.704,448.527L473.541,448.527L473.541,434.689L459.704,434.689ZM127.6,448.527L127.6,476.202L141.438,476.202L141.438,448.527L127.6,448.527ZM321.327,462.364L321.327,476.202L390.515,476.202L390.515,462.364L321.327,462.364Z"/>
        </g>
        <g transform="matrix(0.748619,0,0,0.748619,89.26253,40.353835)">
            <circle cx="285.625" cy="328.385" r="101.835" style="fill:white;"/>
        </g>
        <g transform="matrix(0.775389,0,0,0.775389,81.180137,52.648544)">
            <circle cx="286.188" cy="301.191" r="90.395"/>
        </g>
        <g transform="matrix(0.171622,0,0,0.171622,245.311624,237.018343)">
            <path d="M569.321,257.898C569.627,263.265 577.103,318.683 510.581,333.812C455.56,346.325 379.015,311.33 283.35,296.591C273.322,295.046 282.778,286.86 226.68,183.129C201.585,136.725 196.749,125.234 176.176,132.294C167.884,135.139 151.921,149.903 164.981,170.811C180.049,194.935 194.293,210.485 234.304,288.057C234.649,288.725 238.694,296.568 233.751,297.439C194.466,304.366 194.213,305.871 191.222,304.162C181.944,298.861 192.032,290.17 109.645,198.389C30.56,110.286 272.199,24.809 338.027,18.502C339.911,18.322 420.648,6.74 435.674,49.383C442.733,69.416 418.996,143.286 447.167,263.848C448.075,267.733 448.436,270.322 452.564,267.349C463.008,259.827 524.413,212.293 557.543,235.786C566.754,242.318 568.995,255.92 569.321,257.897L569.321,257.898Z" style="fill:rgb(254,252,247);"/>
            <path d="M131.534,409.433C131.679,403.333 132.588,365.15 170.201,343.683C232.973,307.857 382.51,352.441 383.726,353.984C388.018,359.428 369.745,361.768 368.754,361.991C297.611,378.04 300.342,388.472 259.82,424.919C204.305,474.852 136.804,462.243 131.534,409.433Z" style="fill:rgb(254,252,247);"/>
            <path d="M445.061,488.022C446.027,486.971 447.169,486.092 448.135,485.041C456.908,475.492 419.562,472.396 371.748,484.246C339.465,492.247 282.71,515.794 305.234,523.848C299.068,533.238 273.088,517.846 291.06,488.347C314.774,449.424 300.208,412.038 314.169,397.543C320.348,391.128 350.385,382.034 350.856,381.92C378.29,375.261 396.531,428.229 433.465,445.81C480.147,468.031 450.789,495.051 445.062,488.022L445.061,488.022Z" style="fill:rgb(254,251,247);"/>
            <path d="M445.061,488.022C410.226,510.642 403.557,503.155 403.597,509.165C403.618,512.326 403.785,537.388 376.299,537.733C355.468,537.994 350.994,521.161 348.603,521.53C341.959,522.555 322.208,526.819 305.234,523.849C282.71,515.795 339.464,492.248 371.748,484.247C419.562,472.397 456.908,475.493 448.135,485.042C447.169,486.093 446.027,486.972 445.061,488.023L445.061,488.022Z" style="fill:rgb(8,8,4);"/>
            <path d="M623.499,242.189C623.795,283.768 619.849,307.822 598.804,341.735C592.008,352.686 586.6,343.71 588.864,339.833C590.954,336.254 614.532,308.238 614.058,248.928C613.365,162.261 562.101,115.819 552.969,107.547C552.501,107.123 538.566,97.083 542.74,92.872C547.681,87.887 582.024,117.238 599.702,152.971C619.619,193.23 621.344,218.391 623.498,242.19L623.499,242.189Z" style="fill:rgb(254,250,247);"/>
            <path d="M673.025,251.187C673.12,261.956 680.286,346.515 612.545,415.423C604.842,423.259 601.622,417.277 603.749,413.259C604.497,411.845 646.556,369.981 657.786,317.982C673.927,243.247 656.334,225.291 667.297,224.008C672.764,223.368 672.632,243.08 673.024,251.187L673.025,251.187Z" style="fill:rgb(254,249,246);"/>
            <path d="M2.116,148.435C10.27,121.415 9.723,120.271 23.142,92.967C52.599,33.029 95,0.138 95.826,0.064C111.098,-1.308 85.569,19.929 69.153,39.966C10.049,112.105 13.701,158.093 7.302,164.18C6.91,164.553 -3.24,168.479 2.117,148.435L2.116,148.435Z" style="fill:rgb(254,250,247);"/>
            <path d="M659.536,166.453C663.446,183.325 657.026,182.187 656.017,181.476C648.663,176.298 645.375,113.544 580.785,65.517C574.616,60.93 546.622,44.221 557.768,41.792C560.191,41.264 607.709,62.976 638.515,116.334C653.637,142.526 659.263,165.549 659.536,166.453Z" style="fill:rgb(254,250,247);"/>
            <path d="M53.731,193.427C53.712,207.801 55.411,207.634 55.215,221.922C55.155,226.261 48.783,226.507 47.55,222.023C33.829,172.134 60.726,98.4 96.724,65.358C102.626,59.94 107.423,65.466 103.112,71.042C89.093,89.174 53.977,124.093 53.731,193.426L53.731,193.427Z" style="fill:rgb(254,250,247);"/>
            <path d="M527.54,479.173C526.741,484.464 526.804,487.312 521.972,484.876C517.871,482.81 501.54,405.777 437.239,371.61C430.987,368.288 433.737,359.382 443.613,364.784C495.018,392.899 524.082,456.554 527.541,479.173L527.54,479.173Z" style="fill:rgb(254,250,247);"/>
            <path d="M354.956,507.677C357.472,492.154 362.667,495.661 377.852,492.132C388.753,489.599 391.371,488.453 395.451,498.809C408.003,530.666 356.099,543.426 354.956,507.677Z" style="fill:rgb(254,251,248);"/>
            <path d="M17.725,259.434C37.915,342.705 99.878,349.759 83.035,357.649C72.939,362.378 32.359,320.929 23.545,300.795C1.96,251.489 8.212,247.681 12.543,247.769C16.374,247.847 17.295,257.604 17.725,259.434Z" style="fill:rgb(254,250,247);"/>
            <path d="M490.248,473.926C486.106,490.028 476.42,463.293 471.309,454.56C439.514,400.231 400.337,393.893 415.424,386.435C421.716,383.324 479.454,432.921 490.248,473.927L490.248,473.926Z" style="fill:rgb(254,250,247);"/>
            <path d="M239.557,495.665C235.846,543.566 258.831,553.464 248.758,559.336C241.885,563.342 225.685,525.617 230.997,492.71C232.817,481.435 237.465,456.073 244.915,461.326C248.904,464.138 239.892,482.137 239.557,495.665Z" style="fill:rgb(254,250,247);"/>
            <path d="M268.205,486.674C262.797,526.808 279.647,540.29 269.048,540.632C260.375,540.912 255.198,506.952 259.456,483.708C267.105,441.949 271.876,438.648 276.519,443.201C279.047,445.68 274.637,446.02 268.205,486.674Z" style="fill:rgb(254,249,246);"/>
            <path d="M541.273,148.451C544.983,152.729 570.932,182.657 573.594,211.423C574.382,219.941 566.985,221.231 564.764,212.871C548.446,151.444 524.047,153.677 526.454,142.465C528.179,134.432 540.4,147.517 541.272,148.451L541.273,148.451Z" style="fill:rgb(254,250,247);"/>
            <path d="M13.268,355.463C60.754,395.463 78.265,385.475 73.806,395.086C67.136,409.463 -21.823,347.193 5.04,349.525C7.575,349.745 12.448,354.761 13.268,355.463Z" style="fill:rgb(254,250,247);"/>
            <path d="M89.025,307.451C103.843,320.642 103.536,321.459 102.949,323.024C96.442,340.352 39.848,264.106 56.763,260.638C59.282,260.122 59.833,261.899 65.446,273.828C74.88,293.878 84.328,302.222 89.025,307.451Z" style="fill:rgb(254,250,247);"/>
            <path d="M42.551,421.631C64.889,421.658 76.113,420.685 77.089,424.415C77.524,426.078 75.506,429.456 71.796,429.47C28.218,429.623 21.788,430.796 20.315,426.586C18.131,420.343 39.41,421.652 42.551,421.631Z" style="fill:rgb(254,250,247);"/>
            <path d="M455.79,531.127C457.167,531.405 474.699,533.009 471.994,539.067C469.515,544.619 414.041,533.548 427.246,524.846C428.075,524.3 428.33,523.233 437.683,526.778C447.379,530.453 454.693,530.947 455.79,531.126L455.79,531.127Z" style="fill:rgb(254,249,246);"/>
            <path d="M91.187,455.187C90.385,462.086 50.086,487.574 52.24,476.171C52.976,472.273 54.26,473.206 83.112,453.771C88.918,449.86 90.93,454.584 91.187,455.188L91.187,455.187Z" style="fill:rgb(254,250,247);"/>
            <path d="M422.075,565.392C420.162,563.92 408.118,555.454 407.837,552.673C406.625,540.687 438.286,564.919 438.12,569.941C437.832,578.678 422.984,566.033 422.075,565.392Z" style="fill:rgb(254,250,247);"/>
        </g>
    </g>
</svg>
